<?xml version="1.0" encoding="utf-8"?>
<!-- Generator: Adobe Illustrator 24.1.0, SVG Export Plug-In . SVG Version: 6.00 Build 0)  -->
<svg version="1.1" id="Layer_1" xmlns="http://www.w3.org/2000/svg" xmlns:xlink="http://www.w3.org/1999/xlink" x="0px" y="0px"
	 viewBox="0 0 1111.9 317.2" style="enable-background:new 0 0 1111.9 317.2;" xml:space="preserve">
<style type="text/css">
	.st0{fill:#4A79B8;}
	.st1{fill:#A1C655;}
	.st2{fill:#E7883C;}
</style>
<g>
	<g>
		<path d="M394.5,258.6h-16.5v-5.8h39.5v5.8H401v46.3h-6.5V258.6z"/>
		<path d="M433.9,252.9h34.1v5.8h-27.6v16.8h27.1v5.8h-27.1v17.9h27.6v5.8h-34.1V252.9z"/>
		<path d="M483.8,278.9c0-16,11.8-26.9,26.5-26.9c9.4,0,15.8,4.4,20,10.3l-5.5,3c-3-4.4-8.3-7.6-14.5-7.6
			c-11.2,0-19.8,8.7-19.8,21.1c0,12.3,8.7,21.1,19.8,21.1c6.2,0,11.5-3.1,14.5-7.6l5.5,3c-4.4,5.9-10.6,10.3-20,10.3
			C495.6,305.8,483.8,294.9,483.8,278.9z"/>
		<path d="M583.3,281h-30.4v23.9h-6.5v-52h6.5v22.4h30.4v-22.4h6.5v52h-6.5V281z"/>
		<path d="M638.2,292.6c3.4,3.8,9,7.4,16.4,7.4c9.3,0,12.2-5,12.2-9c0-6.2-6.3-8-13.2-9.8c-8.3-2.2-17.6-4.5-17.6-14.7
			c0-8.6,7.6-14.4,17.9-14.4c8,0,14.1,2.7,18.5,7.3l-3.9,4.8c-3.9-4.3-9.4-6.2-15.1-6.2c-6.2,0-10.7,3.4-10.7,8.3
			c0,5.2,6,6.8,12.6,8.6c8.5,2.3,18.2,4.9,18.2,15.8c0,7.6-5.1,15.3-19.2,15.3c-9,0-15.7-3.4-20-8.3L638.2,292.6z"/>
		<path d="M714.7,252c15.4,0,25.8,11.5,25.8,26.9c0,15.4-10.5,26.9-25.8,26.9c-15.4,0-25.8-11.5-25.8-26.9
			C688.8,263.5,699.2,252,714.7,252z M714.7,257.8c-11.7,0-19.1,9-19.1,21.1c0,12.1,7.4,21.1,19.1,21.1c11.6,0,19.1-9,19.1-21.1
			C733.8,266.7,726.3,257.8,714.7,257.8z"/>
		<path d="M758.3,252.9h6.5v46.3H789v5.8h-30.7V252.9z"/>
		<path d="M803.7,252.9h6.5v31.7c0,9.5,5.1,15.5,14.7,15.5c9.6,0,14.7-6,14.7-15.5v-31.7h6.5v31.7c0,12.9-7.1,21.2-21.2,21.2
			c-14.1,0-21.2-8.3-21.2-21.1V252.9z"/>
		<path d="M878.9,258.6h-16.5v-5.8h39.5v5.8h-16.5v46.3h-6.5V258.6z"/>
		<path d="M918.2,252.9h6.5v52h-6.5V252.9z"/>
		<path d="M968.3,252c15.4,0,25.8,11.5,25.8,26.9c0,15.4-10.5,26.9-25.8,26.9c-15.4,0-25.8-11.5-25.8-26.9
			C942.5,263.5,952.9,252,968.3,252z M968.3,257.8c-11.7,0-19.1,9-19.1,21.1c0,12.1,7.4,21.1,19.1,21.1c11.6,0,19.1-9,19.1-21.1
			C987.4,266.7,979.9,257.8,968.3,257.8z"/>
		<path d="M1018.5,262.9v42h-6.5v-52h6.6l30,41.1v-41.1h6.5v52h-6.2L1018.5,262.9z"/>
		<path d="M1075.6,292.6c3.4,3.8,9,7.4,16.4,7.4c9.3,0,12.2-5,12.2-9c0-6.2-6.3-8-13.2-9.8c-8.3-2.2-17.6-4.5-17.6-14.7
			c0-8.6,7.6-14.4,17.9-14.4c8,0,14.1,2.7,18.5,7.3l-3.9,4.8c-3.9-4.3-9.4-6.2-15.1-6.2c-6.2,0-10.7,3.4-10.7,8.3
			c0,5.2,6,6.8,12.6,8.6c8.5,2.3,18.2,4.9,18.2,15.8c0,7.6-5.1,15.3-19.2,15.3c-9,0-15.7-3.4-20-8.3L1075.6,292.6z"/>
	</g>
	<g>
		<path d="M417.6,77.9v130.4h-41.3V14.2h42.5l89.9,125.7V14.2H550v194.1h-39.9L417.6,77.9z"/>
		<path d="M632.4,50.6h-56.7V14.2h154.8v36.4H674v157.7h-41.6V50.6z"/>
		<path d="M927.4,111.4c0-59.7,45.1-100.4,101.9-100.4c44.2,0,69,23.3,82.6,47.4l-35.5,17.5c-8.1-15.7-25.6-28.2-47.1-28.2
			c-33.8,0-59.4,27.1-59.4,63.7s25.6,63.7,59.4,63.7c21.5,0,39-12.2,47.1-28.2l35.5,17.2c-14,24.2-38.4,47.7-82.6,47.7
			C972.5,211.8,927.4,171,927.4,111.4z"/>
	</g>
</g>
<rect x="6.6" y="6.6" class="st0" width="304" height="137.5"/>
<rect x="6.6" y="172.9" class="st1" width="194.5" height="137.7"/>
<rect x="229.5" y="172.9" class="st2" width="81" height="137.7"/>
<g>
	<path d="M846.8,14.2H756v35.5h85.3c16.3,0,28.5,10.8,28.5,26.8c0,16.3-12.2,26.8-28.5,26.8H756v105.1h41.3v-69.5h49.5
		c41.9,0,65.2-28.2,65.2-62C912,42.7,889,14.2,846.8,14.2z"/>
</g>
<rect x="-867.8" y="238.5" style="fill:none;" width="742" height="57"/>
<text transform="matrix(1 0 0 1 -867.8358 290.5087)" style="font-family:'ProximaNova-Regular'; font-size:78px; letter-spacing:7;">TECH SOLUTIONS</text>
<rect x="-886.1" y="21.7" style="fill:none;" width="778.5" height="199.2"/>
<text transform="matrix(1 0 0 1 -886.0714 215.7848)" style="font-family:'ProximaNova-Bold'; font-size:291px;">NTPC</text>
</svg>
