<?xml version="1.0" encoding="utf-8"?>
<!-- Generator: Adobe Illustrator 24.1.0, SVG Export Plug-In . SVG Version: 6.00 Build 0)  -->
<svg version="1.1" xmlns="http://www.w3.org/2000/svg" xmlns:xlink="http://www.w3.org/1999/xlink" x="0px" y="0px"
	 viewBox="0 0 2665 1997.9" style="enable-background:new 0 0 2665 1997.9;" xml:space="preserve">
<style type="text/css">
	.st0{opacity:0.5;}
</style>
<g id="Layer_3">
</g>
<g id="Layer_2">
	<g>
		<g class="st0">
			<path d="M317.2,15.3v135.5h-302V15.3H317.2 M318.2,14.3h-304v137.5h304V14.3L318.2,14.3z"/>
		</g>
		<g class="st0">
			<path d="M207.7,181.6v135.7H15.2V181.6H207.7 M208.7,180.6H14.2v137.7h194.5V180.6L208.7,180.6z"/>
		</g>
		<g class="st0">
			<path d="M317.2,181.6v135.7h-79V181.6H317.2 M318.2,180.6h-81v137.7h81V180.6L318.2,180.6z"/>
		</g>
	</g>
	<g>
		<g class="st0">
			<path d="M650.1,181.9v135.5h-302V181.9H650.1 M651.1,180.9h-304v137.5h304V180.9L651.1,180.9z"/>
		</g>
		<g class="st0">
			<path d="M650.1,15.3v135.7H457.6V15.3H650.1 M651.1,14.3H456.6v137.7h194.5V14.3L651.1,14.3z"/>
		</g>
		<g class="st0">
			<path d="M427.1,15.3v135.7h-79V15.3H427.1 M428.1,14.3h-81v137.7h81V14.3L428.1,14.3z"/>
		</g>
	</g>
	<g>
		<g class="st0">
			<path d="M983.4,15.3v135.5h-302V15.3H983.4 M984.4,14.3h-304v137.5h304V14.3L984.4,14.3z"/>
		</g>
		<g class="st0">
			<path d="M873.9,181.6v135.7H681.4V181.6H873.9 M874.9,180.6H680.4v137.7h194.5V180.6L874.9,180.6z"/>
		</g>
		<g class="st0">
			<path d="M983.4,181.6v135.7h-79V181.6H983.4 M984.4,180.6h-81v137.7h81V180.6L984.4,180.6z"/>
		</g>
	</g>
	<g>
		<g class="st0">
			<path d="M1316.3,181.9v135.5h-302V181.9H1316.3 M1317.3,180.9h-304v137.5h304V180.9L1317.3,180.9z"/>
		</g>
		<g class="st0">
			<path d="M1316.3,15.3v135.7h-192.5V15.3H1316.3 M1317.3,14.3h-194.5v137.7h194.5V14.3L1317.3,14.3z"/>
		</g>
		<g class="st0">
			<path d="M1093.3,15.3v135.7h-79V15.3H1093.3 M1094.3,14.3h-81v137.7h81V14.3L1094.3,14.3z"/>
		</g>
	</g>
	<g>
		<g class="st0">
			<path d="M1650.1,15.3v135.5h-302V15.3H1650.1 M1651.1,14.3h-304v137.5h304V14.3L1651.1,14.3z"/>
		</g>
		<g class="st0">
			<path d="M1540.5,181.6v135.7h-192.5V181.6H1540.5 M1541.5,180.6h-194.5v137.7h194.5V180.6L1541.5,180.6z"/>
		</g>
		<g class="st0">
			<path d="M1650.1,181.6v135.7h-79V181.6H1650.1 M1651.1,180.6h-81v137.7h81V180.6L1651.1,180.6z"/>
		</g>
	</g>
	<g>
		<g class="st0">
			<path d="M1982.9,181.9v135.5h-302V181.9H1982.9 M1983.9,180.9h-304v137.5h304V180.9L1983.9,180.9z"/>
		</g>
		<g class="st0">
			<path d="M1982.9,15.3v135.7h-192.5V15.3H1982.9 M1983.9,14.3h-194.5v137.7h194.5V14.3L1983.9,14.3z"/>
		</g>
		<g class="st0">
			<path d="M1760,15.3v135.7h-79V15.3H1760 M1761,14.3h-81v137.7h81V14.3L1761,14.3z"/>
		</g>
	</g>
	<g>
		<g class="st0">
			<path d="M2316.3,15.3v135.5h-302V15.3H2316.3 M2317.3,14.3h-304v137.5h304V14.3L2317.3,14.3z"/>
		</g>
		<g class="st0">
			<path d="M2206.7,181.6v135.7h-192.5V181.6H2206.7 M2207.7,180.6h-194.5v137.7h194.5V180.6L2207.7,180.6z"/>
		</g>
		<g class="st0">
			<path d="M2316.3,181.6v135.7h-79V181.6H2316.3 M2317.3,180.6h-81v137.7h81V180.6L2317.3,180.6z"/>
		</g>
	</g>
	<g>
		<g class="st0">
			<path d="M2649.1,181.9v135.5h-302V181.9H2649.1 M2650.1,180.9h-304v137.5h304V180.9L2650.1,180.9z"/>
		</g>
		<g class="st0">
			<path d="M2649.1,15.3v135.7h-192.5V15.3H2649.1 M2650.1,14.3h-194.5v137.7h194.5V14.3L2650.1,14.3z"/>
		</g>
		<g class="st0">
			<path d="M2426.1,15.3v135.7h-79V15.3H2426.1 M2427.1,14.3h-81v137.7h81V14.3L2427.1,14.3z"/>
		</g>
	</g>
	<g>
		<g class="st0">
			<path d="M317.2,348.6v135.5h-302V348.6H317.2 M318.2,347.6h-304v137.5h304V347.6L318.2,347.6z"/>
		</g>
		<g class="st0">
			<path d="M207.7,514.9v135.7H15.2V514.9H207.7 M208.7,513.9H14.2v137.7h194.5V513.9L208.7,513.9z"/>
		</g>
		<g class="st0">
			<path d="M317.2,514.9v135.7h-79V514.9H317.2 M318.2,513.9h-81v137.7h81V513.9L318.2,513.9z"/>
		</g>
	</g>
	<g>
		<g class="st0">
			<path d="M650.1,515.2v135.5h-302V515.2H650.1 M651.1,514.2h-304v137.5h304V514.2L651.1,514.2z"/>
		</g>
		<g class="st0">
			<path d="M650.1,348.6v135.7H457.6V348.6H650.1 M651.1,347.6H456.6v137.7h194.5V347.6L651.1,347.6z"/>
		</g>
		<g class="st0">
			<path d="M427.1,348.6v135.7h-79V348.6H427.1 M428.1,347.6h-81v137.7h81V347.6L428.1,347.6z"/>
		</g>
	</g>
	<g>
		<g class="st0">
			<path d="M983.4,348.6v135.5h-302V348.6H983.4 M984.4,347.6h-304v137.5h304V347.6L984.4,347.6z"/>
		</g>
		<g class="st0">
			<path d="M873.9,514.9v135.7H681.4V514.9H873.9 M874.9,513.9H680.4v137.7h194.5V513.9L874.9,513.9z"/>
		</g>
		<g class="st0">
			<path d="M983.4,514.9v135.7h-79V514.9H983.4 M984.4,513.9h-81v137.7h81V513.9L984.4,513.9z"/>
		</g>
	</g>
	<g>
		<g class="st0">
			<path d="M1316.3,515.2v135.5h-302V515.2H1316.3 M1317.3,514.2h-304v137.5h304V514.2L1317.3,514.2z"/>
		</g>
		<g class="st0">
			<path d="M1316.3,348.6v135.7h-192.5V348.6H1316.3 M1317.3,347.6h-194.5v137.7h194.5V347.6L1317.3,347.6z"/>
		</g>
		<g class="st0">
			<path d="M1093.3,348.6v135.7h-79V348.6H1093.3 M1094.3,347.6h-81v137.7h81V347.6L1094.3,347.6z"/>
		</g>
	</g>
	<g>
		<g class="st0">
			<path d="M1650.1,348.6v135.5h-302V348.6H1650.1 M1651.1,347.6h-304v137.5h304V347.6L1651.1,347.6z"/>
		</g>
		<g class="st0">
			<path d="M1540.5,514.9v135.7h-192.5V514.9H1540.5 M1541.5,513.9h-194.5v137.7h194.5V513.9L1541.5,513.9z"/>
		</g>
		<g class="st0">
			<path d="M1650.1,514.9v135.7h-79V514.9H1650.1 M1651.1,513.9h-81v137.7h81V513.9L1651.1,513.9z"/>
		</g>
	</g>
	<g>
		<g class="st0">
			<path d="M1982.9,515.2v135.5h-302V515.2H1982.9 M1983.9,514.2h-304v137.5h304V514.2L1983.9,514.2z"/>
		</g>
		<g class="st0">
			<path d="M1982.9,348.6v135.7h-192.5V348.6H1982.9 M1983.9,347.6h-194.5v137.7h194.5V347.6L1983.9,347.6z"/>
		</g>
		<g class="st0">
			<path d="M1760,348.6v135.7h-79V348.6H1760 M1761,347.6h-81v137.7h81V347.6L1761,347.6z"/>
		</g>
	</g>
	<g>
		<g class="st0">
			<path d="M2316.3,348.6v135.5h-302V348.6H2316.3 M2317.3,347.6h-304v137.5h304V347.6L2317.3,347.6z"/>
		</g>
		<g class="st0">
			<path d="M2206.7,514.9v135.7h-192.5V514.9H2206.7 M2207.7,513.9h-194.5v137.7h194.5V513.9L2207.7,513.9z"/>
		</g>
		<g class="st0">
			<path d="M2316.3,514.9v135.7h-79V514.9H2316.3 M2317.3,513.9h-81v137.7h81V513.9L2317.3,513.9z"/>
		</g>
	</g>
	<g>
		<g class="st0">
			<path d="M2649.1,515.2v135.5h-302V515.2H2649.1 M2650.1,514.2h-304v137.5h304V514.2L2650.1,514.2z"/>
		</g>
		<g class="st0">
			<path d="M2649.1,348.6v135.7h-192.5V348.6H2649.1 M2650.1,347.6h-194.5v137.7h194.5V347.6L2650.1,347.6z"/>
		</g>
		<g class="st0">
			<path d="M2426.1,348.6v135.7h-79V348.6H2426.1 M2427.1,347.6h-81v137.7h81V347.6L2427.1,347.6z"/>
		</g>
	</g>
	<g>
		<g class="st0">
			<path d="M317.2,681.4v135.5h-302V681.4H317.2 M318.2,680.4h-304v137.5h304V680.4L318.2,680.4z"/>
		</g>
		<g class="st0">
			<path d="M207.7,847.6v135.7H15.2V847.6H207.7 M208.7,846.6H14.2v137.7h194.5V846.6L208.7,846.6z"/>
		</g>
		<g class="st0">
			<path d="M317.2,847.6v135.7h-79V847.6H317.2 M318.2,846.6h-81v137.7h81V846.6L318.2,846.6z"/>
		</g>
	</g>
	<g>
		<g class="st0">
			<path d="M650.1,847.9v135.5h-302V847.9H650.1 M651.1,846.9h-304v137.5h304V846.9L651.1,846.9z"/>
		</g>
		<g class="st0">
			<path d="M650.1,681.4v135.7H457.6V681.4H650.1 M651.1,680.4H456.6v137.7h194.5V680.4L651.1,680.4z"/>
		</g>
		<g class="st0">
			<path d="M427.1,681.4v135.7h-79V681.4H427.1 M428.1,680.4h-81v137.7h81V680.4L428.1,680.4z"/>
		</g>
	</g>
	<g>
		<g class="st0">
			<path d="M983.4,681.4v135.5h-302V681.4H983.4 M984.4,680.4h-304v137.5h304V680.4L984.4,680.4z"/>
		</g>
		<g class="st0">
			<path d="M873.9,847.6v135.7H681.4V847.6H873.9 M874.9,846.6H680.4v137.7h194.5V846.6L874.9,846.6z"/>
		</g>
		<g class="st0">
			<path d="M983.4,847.6v135.7h-79V847.6H983.4 M984.4,846.6h-81v137.7h81V846.6L984.4,846.6z"/>
		</g>
	</g>
	<g>
		<g class="st0">
			<path d="M1316.3,847.9v135.5h-302V847.9H1316.3 M1317.3,846.9h-304v137.5h304V846.9L1317.3,846.9z"/>
		</g>
		<g class="st0">
			<path d="M1316.3,681.4v135.7h-192.5V681.4H1316.3 M1317.3,680.4h-194.5v137.7h194.5V680.4L1317.3,680.4z"/>
		</g>
		<g class="st0">
			<path d="M1093.3,681.4v135.7h-79V681.4H1093.3 M1094.3,680.4h-81v137.7h81V680.4L1094.3,680.4z"/>
		</g>
	</g>
	<g>
		<g class="st0">
			<path d="M1650.1,681.4v135.5h-302V681.4H1650.1 M1651.1,680.4h-304v137.5h304V680.4L1651.1,680.4z"/>
		</g>
		<g class="st0">
			<path d="M1540.5,847.6v135.7h-192.5V847.6H1540.5 M1541.5,846.6h-194.5v137.7h194.5V846.6L1541.5,846.6z"/>
		</g>
		<g class="st0">
			<path d="M1650.1,847.6v135.7h-79V847.6H1650.1 M1651.1,846.6h-81v137.7h81V846.6L1651.1,846.6z"/>
		</g>
	</g>
	<g>
		<g class="st0">
			<path d="M1982.9,847.9v135.5h-302V847.9H1982.9 M1983.9,846.9h-304v137.5h304V846.9L1983.9,846.9z"/>
		</g>
		<g class="st0">
			<path d="M1982.9,681.4v135.7h-192.5V681.4H1982.9 M1983.9,680.4h-194.5v137.7h194.5V680.4L1983.9,680.4z"/>
		</g>
		<g class="st0">
			<path d="M1760,681.4v135.7h-79V681.4H1760 M1761,680.4h-81v137.7h81V680.4L1761,680.4z"/>
		</g>
	</g>
	<g>
		<g class="st0">
			<path d="M2316.3,681.4v135.5h-302V681.4H2316.3 M2317.3,680.4h-304v137.5h304V680.4L2317.3,680.4z"/>
		</g>
		<g class="st0">
			<path d="M2206.7,847.6v135.7h-192.5V847.6H2206.7 M2207.7,846.6h-194.5v137.7h194.5V846.6L2207.7,846.6z"/>
		</g>
		<g class="st0">
			<path d="M2316.3,847.6v135.7h-79V847.6H2316.3 M2317.3,846.6h-81v137.7h81V846.6L2317.3,846.6z"/>
		</g>
	</g>
	<g>
		<g class="st0">
			<path d="M2649.1,847.9v135.5h-302V847.9H2649.1 M2650.1,846.9h-304v137.5h304V846.9L2650.1,846.9z"/>
		</g>
		<g class="st0">
			<path d="M2649.1,681.4v135.7h-192.5V681.4H2649.1 M2650.1,680.4h-194.5v137.7h194.5V680.4L2650.1,680.4z"/>
		</g>
		<g class="st0">
			<path d="M2426.1,681.4v135.7h-79V681.4H2426.1 M2427.1,680.4h-81v137.7h81V680.4L2427.1,680.4z"/>
		</g>
	</g>
	<g>
		<g class="st0">
			<path d="M317.2,1014.7v135.5h-302v-135.5H317.2 M318.2,1013.7h-304v137.5h304V1013.7L318.2,1013.7z"/>
		</g>
		<g class="st0">
			<path d="M207.7,1180.9v135.7H15.2v-135.7H207.7 M208.7,1179.9H14.2v137.7h194.5V1179.9L208.7,1179.9z"/>
		</g>
		<g class="st0">
			<path d="M317.2,1180.9v135.7h-79v-135.7H317.2 M318.2,1179.9h-81v137.7h81V1179.9L318.2,1179.9z"/>
		</g>
	</g>
	<g>
		<g class="st0">
			<path d="M650.1,1181.2v135.5h-302v-135.5H650.1 M651.1,1180.2h-304v137.5h304V1180.2L651.1,1180.2z"/>
		</g>
		<g class="st0">
			<path d="M650.1,1014.7v135.7H457.6v-135.7H650.1 M651.1,1013.7H456.6v137.7h194.5V1013.7L651.1,1013.7z"/>
		</g>
		<g class="st0">
			<path d="M427.1,1014.7v135.7h-79v-135.7H427.1 M428.1,1013.7h-81v137.7h81V1013.7L428.1,1013.7z"/>
		</g>
	</g>
	<g>
		<g class="st0">
			<path d="M983.4,1014.7v135.5h-302v-135.5H983.4 M984.4,1013.7h-304v137.5h304V1013.7L984.4,1013.7z"/>
		</g>
		<g class="st0">
			<path d="M873.9,1180.9v135.7H681.4v-135.7H873.9 M874.9,1179.9H680.4v137.7h194.5V1179.9L874.9,1179.9z"/>
		</g>
		<g class="st0">
			<path d="M983.4,1180.9v135.7h-79v-135.7H983.4 M984.4,1179.9h-81v137.7h81V1179.9L984.4,1179.9z"/>
		</g>
	</g>
	<g>
		<g class="st0">
			<path d="M1316.3,1181.2v135.5h-302v-135.5H1316.3 M1317.3,1180.2h-304v137.5h304V1180.2L1317.3,1180.2z"/>
		</g>
		<g class="st0">
			<path d="M1316.3,1014.7v135.7h-192.5v-135.7H1316.3 M1317.3,1013.7h-194.5v137.7h194.5V1013.7L1317.3,1013.7z"/>
		</g>
		<g class="st0">
			<path d="M1093.3,1014.7v135.7h-79v-135.7H1093.3 M1094.3,1013.7h-81v137.7h81V1013.7L1094.3,1013.7z"/>
		</g>
	</g>
	<g>
		<g class="st0">
			<path d="M1650.1,1014.7v135.5h-302v-135.5H1650.1 M1651.1,1013.7h-304v137.5h304V1013.7L1651.1,1013.7z"/>
		</g>
		<g class="st0">
			<path d="M1540.5,1180.9v135.7h-192.5v-135.7H1540.5 M1541.5,1179.9h-194.5v137.7h194.5V1179.9L1541.5,1179.9z"/>
		</g>
		<g class="st0">
			<path d="M1650.1,1180.9v135.7h-79v-135.7H1650.1 M1651.1,1179.9h-81v137.7h81V1179.9L1651.1,1179.9z"/>
		</g>
	</g>
	<g>
		<g class="st0">
			<path d="M1982.9,1181.2v135.5h-302v-135.5H1982.9 M1983.9,1180.2h-304v137.5h304V1180.2L1983.9,1180.2z"/>
		</g>
		<g class="st0">
			<path d="M1982.9,1014.7v135.7h-192.5v-135.7H1982.9 M1983.9,1013.7h-194.5v137.7h194.5V1013.7L1983.9,1013.7z"/>
		</g>
		<g class="st0">
			<path d="M1760,1014.7v135.7h-79v-135.7H1760 M1761,1013.7h-81v137.7h81V1013.7L1761,1013.7z"/>
		</g>
	</g>
	<g>
		<g class="st0">
			<path d="M2316.3,1014.7v135.5h-302v-135.5H2316.3 M2317.3,1013.7h-304v137.5h304V1013.7L2317.3,1013.7z"/>
		</g>
		<g class="st0">
			<path d="M2206.7,1180.9v135.7h-192.5v-135.7H2206.7 M2207.7,1179.9h-194.5v137.7h194.5V1179.9L2207.7,1179.9z"/>
		</g>
		<g class="st0">
			<path d="M2316.3,1180.9v135.7h-79v-135.7H2316.3 M2317.3,1179.9h-81v137.7h81V1179.9L2317.3,1179.9z"/>
		</g>
	</g>
	<g>
		<g class="st0">
			<path d="M2649.1,1181.2v135.5h-302v-135.5H2649.1 M2650.1,1180.2h-304v137.5h304V1180.2L2650.1,1180.2z"/>
		</g>
		<g class="st0">
			<path d="M2649.1,1014.7v135.7h-192.5v-135.7H2649.1 M2650.1,1013.7h-194.5v137.7h194.5V1013.7L2650.1,1013.7z"/>
		</g>
		<g class="st0">
			<path d="M2426.1,1014.7v135.7h-79v-135.7H2426.1 M2427.1,1013.7h-81v137.7h81V1013.7L2427.1,1013.7z"/>
		</g>
	</g>
	<g>
		<g class="st0">
			<path d="M317.2,1347.3v135.5h-302v-135.5H317.2 M318.2,1346.3h-304v137.5h304V1346.3L318.2,1346.3z"/>
		</g>
		<g class="st0">
			<path d="M207.7,1513.6v135.7H15.2v-135.7H207.7 M208.7,1512.6H14.2v137.7h194.5V1512.6L208.7,1512.6z"/>
		</g>
		<g class="st0">
			<path d="M317.2,1513.6v135.7h-79v-135.7H317.2 M318.2,1512.6h-81v137.7h81V1512.6L318.2,1512.6z"/>
		</g>
	</g>
	<g>
		<g class="st0">
			<path d="M650.1,1513.8v135.5h-302v-135.5H650.1 M651.1,1512.8h-304v137.5h304V1512.8L651.1,1512.8z"/>
		</g>
		<g class="st0">
			<path d="M650.1,1347.3V1483H457.6v-135.7H650.1 M651.1,1346.3H456.6V1484h194.5V1346.3L651.1,1346.3z"/>
		</g>
		<g class="st0">
			<path d="M427.1,1347.3V1483h-79v-135.7H427.1 M428.1,1346.3h-81V1484h81V1346.3L428.1,1346.3z"/>
		</g>
	</g>
	<g>
		<g class="st0">
			<path d="M983.4,1347.3v135.5h-302v-135.5H983.4 M984.4,1346.3h-304v137.5h304V1346.3L984.4,1346.3z"/>
		</g>
		<g class="st0">
			<path d="M873.9,1513.6v135.7H681.4v-135.7H873.9 M874.9,1512.6H680.4v137.7h194.5V1512.6L874.9,1512.6z"/>
		</g>
		<g class="st0">
			<path d="M983.4,1513.6v135.7h-79v-135.7H983.4 M984.4,1512.6h-81v137.7h81V1512.6L984.4,1512.6z"/>
		</g>
	</g>
	<g>
		<g class="st0">
			<path d="M1316.3,1513.8v135.5h-302v-135.5H1316.3 M1317.3,1512.8h-304v137.5h304V1512.8L1317.3,1512.8z"/>
		</g>
		<g class="st0">
			<path d="M1316.3,1347.3V1483h-192.5v-135.7H1316.3 M1317.3,1346.3h-194.5V1484h194.5V1346.3L1317.3,1346.3z"/>
		</g>
		<g class="st0">
			<path d="M1093.3,1347.3V1483h-79v-135.7H1093.3 M1094.3,1346.3h-81V1484h81V1346.3L1094.3,1346.3z"/>
		</g>
	</g>
	<g>
		<g class="st0">
			<path d="M1650.1,1347.3v135.5h-302v-135.5H1650.1 M1651.1,1346.3h-304v137.5h304V1346.3L1651.1,1346.3z"/>
		</g>
		<g class="st0">
			<path d="M1540.5,1513.6v135.7h-192.5v-135.7H1540.5 M1541.5,1512.6h-194.5v137.7h194.5V1512.6L1541.5,1512.6z"/>
		</g>
		<g class="st0">
			<path d="M1650.1,1513.6v135.7h-79v-135.7H1650.1 M1651.1,1512.6h-81v137.7h81V1512.6L1651.1,1512.6z"/>
		</g>
	</g>
	<g>
		<g class="st0">
			<path d="M1982.9,1513.8v135.5h-302v-135.5H1982.9 M1983.9,1512.8h-304v137.5h304V1512.8L1983.9,1512.8z"/>
		</g>
		<g class="st0">
			<path d="M1982.9,1347.3V1483h-192.5v-135.7H1982.9 M1983.9,1346.3h-194.5V1484h194.5V1346.3L1983.9,1346.3z"/>
		</g>
		<g class="st0">
			<path d="M1760,1347.3V1483h-79v-135.7H1760 M1761,1346.3h-81V1484h81V1346.3L1761,1346.3z"/>
		</g>
	</g>
	<g>
		<g class="st0">
			<path d="M2316.3,1347.3v135.5h-302v-135.5H2316.3 M2317.3,1346.3h-304v137.5h304V1346.3L2317.3,1346.3z"/>
		</g>
		<g class="st0">
			<path d="M2206.7,1513.6v135.7h-192.5v-135.7H2206.7 M2207.7,1512.6h-194.5v137.7h194.5V1512.6L2207.7,1512.6z"/>
		</g>
		<g class="st0">
			<path d="M2316.3,1513.6v135.7h-79v-135.7H2316.3 M2317.3,1512.6h-81v137.7h81V1512.6L2317.3,1512.6z"/>
		</g>
	</g>
	<g>
		<g class="st0">
			<path d="M2649.1,1513.8v135.5h-302v-135.5H2649.1 M2650.1,1512.8h-304v137.5h304V1512.8L2650.1,1512.8z"/>
		</g>
		<g class="st0">
			<path d="M2649.1,1347.3V1483h-192.5v-135.7H2649.1 M2650.1,1346.3h-194.5V1484h194.5V1346.3L2650.1,1346.3z"/>
		</g>
		<g class="st0">
			<path d="M2426.1,1347.3V1483h-79v-135.7H2426.1 M2427.1,1346.3h-81V1484h81V1346.3L2427.1,1346.3z"/>
		</g>
	</g>
	<g>
		<g class="st0">
			<path d="M317.2,1680.6v135.5h-302v-135.5H317.2 M318.2,1679.6h-304v137.5h304V1679.6L318.2,1679.6z"/>
		</g>
		<g class="st0">
			<path d="M207.7,1846.9v135.7H15.2v-135.7H207.7 M208.7,1845.9H14.2v137.7h194.5V1845.9L208.7,1845.9z"/>
		</g>
		<g class="st0">
			<path d="M317.2,1846.9v135.7h-79v-135.7H317.2 M318.2,1845.9h-81v137.7h81V1845.9L318.2,1845.9z"/>
		</g>
	</g>
	<g>
		<g class="st0">
			<path d="M650.1,1847.1v135.5h-302v-135.5H650.1 M651.1,1846.1h-304v137.5h304V1846.1L651.1,1846.1z"/>
		</g>
		<g class="st0">
			<path d="M650.1,1680.6v135.7H457.6v-135.7H650.1 M651.1,1679.6H456.6v137.7h194.5V1679.6L651.1,1679.6z"/>
		</g>
		<g class="st0">
			<path d="M427.1,1680.6v135.7h-79v-135.7H427.1 M428.1,1679.6h-81v137.7h81V1679.6L428.1,1679.6z"/>
		</g>
	</g>
	<g>
		<g class="st0">
			<path d="M983.4,1680.6v135.5h-302v-135.5H983.4 M984.4,1679.6h-304v137.5h304V1679.6L984.4,1679.6z"/>
		</g>
		<g class="st0">
			<path d="M873.9,1846.9v135.7H681.4v-135.7H873.9 M874.9,1845.9H680.4v137.7h194.5V1845.9L874.9,1845.9z"/>
		</g>
		<g class="st0">
			<path d="M983.4,1846.9v135.7h-79v-135.7H983.4 M984.4,1845.9h-81v137.7h81V1845.9L984.4,1845.9z"/>
		</g>
	</g>
	<g>
		<g class="st0">
			<path d="M1316.3,1847.1v135.5h-302v-135.5H1316.3 M1317.3,1846.1h-304v137.5h304V1846.1L1317.3,1846.1z"/>
		</g>
		<g class="st0">
			<path d="M1316.3,1680.6v135.7h-192.5v-135.7H1316.3 M1317.3,1679.6h-194.5v137.7h194.5V1679.6L1317.3,1679.6z"/>
		</g>
		<g class="st0">
			<path d="M1093.3,1680.6v135.7h-79v-135.7H1093.3 M1094.3,1679.6h-81v137.7h81V1679.6L1094.3,1679.6z"/>
		</g>
	</g>
	<g>
		<g class="st0">
			<path d="M1650.1,1680.6v135.5h-302v-135.5H1650.1 M1651.1,1679.6h-304v137.5h304V1679.6L1651.1,1679.6z"/>
		</g>
		<g class="st0">
			<path d="M1540.5,1846.9v135.7h-192.5v-135.7H1540.5 M1541.5,1845.9h-194.5v137.7h194.5V1845.9L1541.5,1845.9z"/>
		</g>
		<g class="st0">
			<path d="M1650.1,1846.9v135.7h-79v-135.7H1650.1 M1651.1,1845.9h-81v137.7h81V1845.9L1651.1,1845.9z"/>
		</g>
	</g>
	<g>
		<g class="st0">
			<path d="M1982.9,1847.1v135.5h-302v-135.5H1982.9 M1983.9,1846.1h-304v137.5h304V1846.1L1983.9,1846.1z"/>
		</g>
		<g class="st0">
			<path d="M1982.9,1680.6v135.7h-192.5v-135.7H1982.9 M1983.9,1679.6h-194.5v137.7h194.5V1679.6L1983.9,1679.6z"/>
		</g>
		<g class="st0">
			<path d="M1760,1680.6v135.7h-79v-135.7H1760 M1761,1679.6h-81v137.7h81V1679.6L1761,1679.6z"/>
		</g>
	</g>
	<g>
		<g class="st0">
			<path d="M2316.3,1680.6v135.5h-302v-135.5H2316.3 M2317.3,1679.6h-304v137.5h304V1679.6L2317.3,1679.6z"/>
		</g>
		<g class="st0">
			<path d="M2206.7,1846.9v135.7h-192.5v-135.7H2206.7 M2207.7,1845.9h-194.5v137.7h194.5V1845.9L2207.7,1845.9z"/>
		</g>
		<g class="st0">
			<path d="M2316.3,1846.9v135.7h-79v-135.7H2316.3 M2317.3,1845.9h-81v137.7h81V1845.9L2317.3,1845.9z"/>
		</g>
	</g>
	<g>
		<g class="st0">
			<path d="M2649.1,1847.1v135.5h-302v-135.5H2649.1 M2650.1,1846.1h-304v137.5h304V1846.1L2650.1,1846.1z"/>
		</g>
		<g class="st0">
			<path d="M2649.1,1680.6v135.7h-192.5v-135.7H2649.1 M2650.1,1679.6h-194.5v137.7h194.5V1679.6L2650.1,1679.6z"/>
		</g>
		<g class="st0">
			<path d="M2426.1,1680.6v135.7h-79v-135.7H2426.1 M2427.1,1679.6h-81v137.7h81V1679.6L2427.1,1679.6z"/>
		</g>
	</g>
</g>
</svg>
